<svg width="2301" height="1979" viewBox="0 0 2301 1979" fill="none" xmlns="http://www.w3.org/2000/svg">
    <path d="M0 1630H2300.98V1623H0V1630Z" fill="#102048" />

    <path
        d="M321.647 1773.89C252.293 1773.89 196.072 1763.11 196.072 1749.79C196.072 1736.47 252.293 1725.67 321.647 1725.67C390.998 1725.67 447.22 1736.47 447.22 1749.79C447.22 1763.11 390.998 1773.89 321.647 1773.89Z"
        fill="#AEB3C1" />
    <path
        d="M255.317 1602.08C237.577 1602.08 223.145 1617.08 223.145 1635.53C223.145 1655.88 247.604 1686.17 264.039 1686.17C279.138 1686.17 287.491 1656.23 287.491 1635.53C287.491 1617.08 273.056 1602.08 255.317 1602.08ZM264.039 1702.84C236.867 1702.84 206.622 1662.72 206.622 1635.53C206.622 1607.89 228.467 1585.41 255.317 1585.41C282.169 1585.41 304.014 1607.89 304.014 1635.53C304.014 1661.56 293.16 1702.84 264.039 1702.84Z"
        fill="#1F3C88" />
    <path
        d="M357.977 1746.2H286.486C274.606 1746.2 264.713 1737.01 263.73 1725.08L248.944 1545.37H398.477L380.698 1725.45C379.535 1737.24 369.711 1746.2 357.977 1746.2Z"
        fill="#1F3C88" />
    <path
        d="M266.286 1329.84C261.276 1346.75 259.037 1364.16 261.88 1380.91C263.293 1389.25 265.648 1397.4 268.919 1405.21C272.284 1412.99 276.457 1420.44 281.214 1427.55C286.133 1434.56 291.351 1441.44 297.256 1447.8C298.653 1449.33 300.179 1451.23 301.711 1453.08C303.207 1454.96 304.797 1456.72 306.198 1458.68L310.165 1464.84C311.537 1466.84 312.357 1469.31 313.445 1471.51C314.596 1473.71 315.15 1476.25 315.866 1478.68C316.7 1481.07 316.836 1483.72 317.139 1486.27C317.331 1487.55 317.299 1488.84 317.183 1490.15L316.922 1494.03C316.741 1495.31 316.39 1496.56 316.119 1497.83C315.836 1499.08 315.566 1500.35 315.036 1501.52L313.593 1505.05C313.002 1506.17 312.357 1507.25 311.737 1508.33C311.154 1509.45 310.4 1510.44 309.663 1511.43C308.924 1512.41 308.229 1513.43 307.359 1514.29C304.101 1517.99 300.468 1520.96 296.13 1523.43L293.375 1519.01C299.494 1513.59 304.506 1506.28 306.205 1498.75C306.535 1497.84 306.613 1496.87 306.72 1495.92C306.814 1494.96 307.003 1494.03 307.04 1493.08L306.913 1490.21C306.919 1489.27 306.858 1488.33 306.587 1487.39C306.152 1485.51 306.032 1483.61 305.187 1481.8C304.471 1479.99 304.007 1478.12 302.892 1476.4C301.855 1474.67 301.137 1472.84 299.9 1471.19L296.352 1466.19C295.087 1464.56 293.583 1463.07 292.219 1461.51L287.83 1456.68C284.692 1453.28 281.559 1449.88 278.688 1446.21C275.664 1442.69 273 1438.83 270.328 1435C265.282 1427.12 260.563 1418.91 257.211 1410.01C253.893 1401.12 251.534 1391.8 250.685 1382.32C248.753 1363.28 253.236 1344.19 261.504 1327.85L266.286 1329.84"
        fill="#D3DFFF" />
    <path
        d="M331.228 1324.69C340.476 1332.33 348.044 1342.99 351.531 1355.27C353.359 1361.36 354.141 1367.73 354.23 1374.07C354.317 1380.41 353.302 1386.64 352.058 1392.73C350.648 1398.79 348.628 1404.63 346.288 1410.25L344.722 1414.12C344.259 1415.33 343.691 1416.53 343.298 1417.75L342.296 1421.39C341.927 1422.61 341.888 1423.77 341.634 1424.97C341.331 1426.2 341.45 1427.32 341.397 1428.48C341.265 1429.69 341.582 1430.73 341.686 1431.87C341.724 1433.04 342.254 1433.99 342.477 1435.12C342.97 1436.09 343.327 1437.2 343.999 1438.12C346.293 1442.05 350.7 1445.4 355.304 1447.51L354.292 1452.61C347.733 1451.93 341.619 1449.11 336.727 1443.89C335.503 1442.63 334.578 1441.05 333.583 1439.56C332.861 1437.95 331.854 1436.35 331.433 1434.63C330.968 1432.91 330.398 1431.15 330.318 1429.41C330.156 1427.68 329.879 1425.89 330.049 1424.21C330.18 1422.55 330.086 1420.75 330.458 1419.15L331.444 1414.29C331.84 1412.71 332.397 1411.23 332.875 1409.68C333.384 1408.15 333.873 1406.56 334.341 1405.36C336.407 1400.23 337.893 1394.95 339.251 1389.69C340.499 1384.43 341.27 1379.11 341.596 1373.8C341.842 1368.49 341.471 1363.21 340.578 1357.99C338.748 1347.51 333.876 1337.63 327.464 1328.27L331.228 1324.69"
        fill="#D3DFFF" />
    <path
        d="M906.648 1390.43C789.443 1376.44 671.503 1347.87 567.941 1285.27C464.379 1222.67 375.978 1122.73 341.487 1000.47C306.995 878.2 334.247 734.133 423.023 652.6C533.506 551.133 697.192 567.267 841.05 540.667C1026.49 506.373 1189.16 395.32 1355.53 302.48C1521.88 209.653 1709.17 131.733 1895.13 171.027C2044.84 202.667 2179.8 313.52 2248.6 461.413C2317.4 609.293 2318.43 790.693 2251.3 936.547C2154.43 1147 1940.53 1259.83 1733.43 1333.32C1580.8 1387.48 1423.88 1428.25 1264.7 1455.11C1206.19 1464.99 1146.47 1472.99 1087.53 1463.64C1028.59 1454.28 969.728 1425.56 933.256 1374.12L906.648 1390.43Z"
        fill="#6899C6" />
    <path
        d="M958.638 1978.15C915.122 1978.15 879.569 1970.6 869.107 1948.44C863.526 1936.63 891.012 1929.87 933.97 1926.07C953.015 1944.07 984.241 1956.43 1009.43 1958.23C1010.69 1958.33 1011.91 1958.4 1013.13 1958.44C1013.77 1958.45 1014.44 1958.47 1015.14 1958.47C1029.89 1958.47 1056.5 1953.84 1083.42 1948.2C1125.06 1939.51 1167.36 1928.44 1167.36 1928.44C1182.18 1930.81 1195.16 1931.87 1206.48 1931.87C1219.6 1931.87 1230.5 1930.44 1239.45 1928.01C1270.16 1931.33 1288.79 1935.65 1288.79 1940.39C1288.79 1944.91 1268.36 1946.19 1245.21 1946.19C1214.94 1946.19 1180.01 1944 1180.01 1944C1180.01 1944 1051.26 1978.15 958.638 1978.15ZM1240.45 1927.73H1240.45H1240.45ZM1042.87 1841.77C1037.92 1841.43 1033.15 1841.17 1028.54 1841C1029.71 1829 1027.5 1816.85 1020.51 1805.28C770.158 1798.08 588.517 1776.61 588.517 1751.25C588.517 1740.39 621.898 1730.23 679.784 1721.61C725.892 1746.07 778.665 1759.28 831.213 1764.93C880.661 1770.24 930.227 1772.32 979.845 1772.32C1014.72 1772.32 1049.63 1771.29 1084.5 1769.64C1089.07 1785.4 1091.28 1798.36 1089.14 1805.11C1080.31 1832.89 1042.87 1841.77 1042.87 1841.77ZM1232.74 1807.81C1231.1 1805.39 1230.14 1804 1230.14 1804C1230.14 1794.24 1228.69 1777.96 1226.72 1760.43C1356.1 1751.24 1510.01 1763.76 1633.89 1710.57C1749.79 1720.87 1821.85 1735.29 1821.85 1751.25C1821.85 1781.68 1560.53 1806.48 1232.74 1807.81"
        fill="#3D455A" />
    <path
        d="M1876.32 1335.47C1868.19 1470.77 1800.58 1605.96 1689.74 1680.37C1557.62 1769.07 1372.9 1749.44 1222.44 1760.73C1092.37 1770.51 961.315 1778.89 831.213 1764.93C724.607 1753.47 617.077 1710.87 566.152 1606.47C515.131 1501.83 509.611 1362.8 560.634 1256.89C576.892 1223.11 598.669 1193.07 624.28 1166.87C628.445 1162.56 632.773 1158.37 637.168 1154.27C640.142 1151.51 643.149 1148.77 646.222 1146.09C650.915 1142 655.74 1138 660.63 1134.11C662.251 1132.84 663.869 1131.56 665.521 1130.29C667.142 1129.04 668.794 1127.8 670.445 1126.56C672.099 1125.33 673.75 1124.11 675.436 1122.89C676.691 1122 677.946 1121.11 679.202 1120.2C681.284 1118.71 683.399 1117.23 685.547 1115.8C704.548 1102.87 724.574 1091.51 745.228 1081.73C765.32 1072.16 786.006 1064.11 806.825 1057.56C875.265 1036.13 946.741 1028.53 1017.36 1019.16C1167.22 999.333 1319.8 992.56 1470.84 992.667C1594.11 992.707 1732.9 1011.29 1815.31 1118.04C1861.84 1178.29 1880.98 1258.4 1876.32 1335.47Z"
        fill="#EE6F57" />
    <path
        d="M1622.57 1106.95C1622.57 1106.95 1654.36 1076.83 1671.21 1059.39C1688.06 1041.95 1651.3 1041.39 1633.18 1063.11C1615.06 1084.84 1622.57 1106.95 1622.57 1106.95"
        fill="#F9B384" />
    <path
        d="M745.228 1081.73C724.575 1091.51 704.549 1102.87 685.547 1115.8C683.399 1117.23 681.284 1118.71 679.203 1120.2C677.947 1121.11 676.692 1122 675.435 1122.89C673.75 1124.11 672.098 1125.33 670.445 1126.56C668.793 1127.8 667.141 1129.04 665.522 1130.29C663.869 1131.56 662.25 1132.84 660.631 1134.11C655.806 1137.96 651.082 1141.93 646.422 1146L646.223 1146.11C643.149 1148.77 640.142 1151.51 637.168 1154.27C632.773 1158.37 628.445 1162.56 624.28 1166.87C624.645 1170.4 626.924 1173.8 630.671 1174.57C655.474 1179.64 667.896 1203.51 687.887 1217.08C702.722 1227.15 720.261 1229.91 737.049 1224.13C718.974 1262.75 709.005 1301.05 716.809 1344.27C719.185 1357.33 723.299 1370.05 728.912 1382.07C705.683 1364.67 683.31 1327.39 674.108 1289.59C672.801 1284.23 667.428 1280.87 662.115 1282.27C656.799 1283.59 653.546 1289 654.852 1294.36C666.243 1341.16 695.246 1386.13 725.377 1403.72C732.552 1407.91 739.838 1410.56 747.055 1411.79C753.024 1419.51 759.685 1426.68 767.006 1433.11L811.551 1445.67L847.902 1209L745.228 1081.73"
        fill="#B35341" />
    <path
        d="M874.339 1240.67C782.238 1204.48 718.294 1166 681.174 1140.39C657.113 1123.77 644.943 1094.49 649.872 1065.51L697.367 786.253C702.255 757.52 721.147 733.08 747.718 721.587C823.911 688.627 898.097 669.8 963.563 660.667C963.563 660.667 1000.23 657.68 1047 662.333C1077.78 665.4 1148.24 686.333 1193.03 700.373C1218.33 708.293 1238.64 727.413 1248.23 752.333C1267.01 801.16 1297.51 883.6 1307.24 928.16C1340.83 1082.05 1335.33 1070.67 1335.33 1070.67L1370.03 1307.33L1001.57 1328.16L907.385 1284.84L874.339 1240.67Z"
        fill="#214C73" />
    <path
        d="M1102.36 394.827C1102.36 394.827 1069.72 327.333 982.977 358.16C920.19 344.413 872.273 419.413 918.537 521.493L1005.7 541.92L1102.36 394.827Z"
        fill="#102048" />
    <path
        d="M1056.09 585.667V705.067C1056.09 733 1033.62 755.667 1005.93 755.667C968.387 755.667 937.951 724.96 937.951 687.093V585.667H1056.09Z"
        fill="#F9B384" />
    <path d="M1056.09 635.2V700.333C1003.45 700.6 968.52 631.933 968.52 631.933L1056.09 635.2Z" fill="#E28B6D" />
    <path
        d="M1108.17 570.627C1105 587.16 1100.47 604.093 1093.96 619C1082.59 645.16 1065.24 665.093 1038.74 665.667C976.714 667 928.865 581.494 928.865 581.494L938.778 464.827L985.869 411.494L1115.57 492.333C1115.57 492.333 1115.94 530.267 1108.17 570.627Z"
        fill="#F9B384" />
    <path
        d="M936.713 547.333C936.713 547.333 949.518 494.827 994.13 460.667C994.13 460.667 1058.98 546.08 1127.55 504.827C1196.12 463.587 1166.38 382.333 1102.35 394.827L1028.83 386.493L936.713 416.08L921.017 489L936.713 547.333Z"
        fill="#102048" />
    <path
        d="M1001.81 1152.41L896.715 1130.73C865.65 1079.69 781.628 1071.64 781.628 1071.64L819.262 857.893C819.401 881.907 814.281 961.16 841.293 1031.23C860.569 1081.23 939.328 1016.23 1001.81 1152.41"
        fill="#2A5986" />
    <path
        d="M821.179 854.24C818.835 872.533 816.074 890.747 813.219 908.933C810.443 927.147 807.179 945.267 804.184 963.44C801.047 981.587 797.753 999.707 794.229 1017.77L788.844 1044.87C786.899 1053.88 785.085 1062.91 782.995 1071.88L780.262 1071.4C781.354 1062.24 782.723 1053.13 783.958 1044L788.12 1016.68C790.961 998.493 794.03 980.333 797.258 962.2C800.626 944.093 803.727 925.947 807.314 907.88C810.822 889.8 814.427 871.747 818.447 853.76L821.179 854.24"
        fill="#2F3441" />
    <path
        d="M1186.24 820.44C1191.24 844.187 1195.86 868 1200.38 891.84C1204.98 915.667 1209.13 939.56 1213.53 963.427C1217.72 987.32 1221.82 1011.23 1225.81 1035.16L1231.58 1071.09C1233.36 1083.09 1235.26 1095.08 1236.91 1107.11L1234.37 1107.56C1231.79 1095.71 1229.47 1083.8 1227.03 1071.91L1220.13 1036.17C1215.67 1012.33 1211.33 988.467 1207.08 964.573C1203.03 940.653 1198.73 916.787 1194.89 892.827C1190.97 868.88 1187.14 844.92 1183.7 820.893L1186.24 820.44"
        fill="#191B22" />
    <path
        d="M1099.05 1250.67L1097.95 1201.77C1190.45 1198.8 1205.59 1019.35 1204.63 950.213C1205.45 955 1206.27 959.787 1207.08 964.573C1211.34 988.467 1215.67 1012.33 1220.13 1036.17L1227.03 1071.91C1229.48 1083.8 1231.79 1095.71 1234.37 1107.56L1236.91 1107.11C1236.9 1107.03 1236.89 1106.95 1236.88 1106.88L1262.08 1240.67L1099.05 1250.67Z"
        fill="#214B73" />
    <path
        d="M1234.37 1107.56C1231.79 1095.71 1229.48 1083.8 1227.03 1071.91L1220.13 1036.17C1215.67 1012.33 1211.34 988.467 1207.08 964.573C1206.27 959.787 1205.45 955 1204.63 950.213C1204.51 941.96 1204.17 935.293 1203.7 930.667L1236.88 1106.88C1236.89 1106.95 1236.9 1107.03 1236.91 1107.11L1234.37 1107.56Z"
        fill="#1F3C88" />
    <path
        d="M990.825 1195.67C1064.35 1164 1078.41 1165.17 1088.31 1165.67C1122.18 1167.33 1170.92 1235.67 1170.92 1235.67L1170.1 1248.17H984.216L990.825 1195.67Z"
        fill="#E28B6D" />
    <path d="M1273.64 1270.95H1044.8V1235.95H1273.64V1270.95Z" fill="white" />
    <path d="M1584.83 1270.97H1187.17L1276.4 912.52H1674.05L1584.83 1270.97" fill="#FBC343" />
    <path
        d="M1620.86 1124.37C1581.52 1118.44 1454.3 1091.77 1192.13 1252.89L1186.07 1275.11L1584.83 1270.97L1620.86 1124.37Z"
        fill="#C89B35" />
    <path
        d="M1628.41 1204C1625.92 1220.88 1625.1 1245.67 1573.26 1242.55L1557.98 1234.63L1572.43 1218.59L1603.62 1202.55L1628.41 1204"
        fill="#F9B384" />
    <path
        d="M1633.3 1158.44C1633.3 1158.44 1661.67 1195.83 1633.15 1207.33C1602.17 1219.84 1572.43 1218.59 1572.43 1218.59C1585.65 1181.08 1628.61 1183.59 1628.61 1183.59L1633.3 1158.44"
        fill="#F9B384" />
    <path
        d="M1634.12 1134.28C1634.12 1134.28 1673.22 1170.95 1636.87 1181.23C1585.54 1195.73 1569.68 1196.77 1569.68 1196.77C1566.93 1169.28 1617.87 1151.51 1617.87 1151.51L1634.12 1134.28Z"
        fill="#F9B384" />
    <path
        d="M1626.14 1102.33C1626.14 1102.33 1679.56 1135.11 1629.44 1153.44C1579.32 1171.77 1567.47 1171.51 1567.47 1171.51C1564.72 1144 1618.43 1134.56 1618.43 1134.56L1626.14 1102.33Z"
        fill="#F9B384" />
    <path
        d="M1567.71 1173.15C1567.74 1173.15 1582.33 1171.05 1599.13 1167.19C1607.54 1165.25 1616.5 1162.87 1624.48 1160.07C1632.47 1157.25 1639.49 1154.05 1644.11 1150.29L1642.02 1147.71C1637.98 1151.03 1631.2 1154.19 1623.4 1156.92C1611.67 1161.04 1597.61 1164.28 1586.51 1166.48C1580.94 1167.59 1576.13 1168.43 1572.69 1168.99C1570.99 1169.28 1569.61 1169.49 1568.69 1169.64C1567.75 1169.77 1567.25 1169.85 1567.25 1169.85L1567.71 1173.15"
        fill="#E28B6D" />
    <path
        d="M1569.9 1198.43C1569.93 1198.43 1585.1 1196.27 1602.7 1192.44C1611.49 1190.52 1620.89 1188.19 1629.32 1185.48C1637.74 1182.76 1645.2 1179.71 1650.2 1176.2L1648.31 1173.47C1643.83 1176.63 1636.58 1179.65 1628.32 1182.29C1615.89 1186.29 1601.15 1189.51 1589.55 1191.71C1583.73 1192.81 1578.71 1193.67 1575.14 1194.25C1573.34 1194.53 1571.93 1194.76 1570.95 1194.91C1569.97 1195.05 1569.45 1195.12 1569.45 1195.13L1569.9 1198.43"
        fill="#E28B6D" />
    <path
        d="M1572.38 1220.25C1572.39 1220.25 1573.84 1220.29 1576.33 1220.29C1581.3 1220.29 1590.38 1220.09 1600.29 1218.89C1610.21 1217.67 1620.94 1215.47 1629.33 1211.33L1627.88 1208.33C1620.08 1212.2 1609.61 1214.4 1599.9 1215.57C1590.18 1216.77 1581.21 1216.97 1576.33 1216.96C1575.11 1216.96 1574.15 1216.96 1573.49 1216.95C1573.16 1216.93 1572.9 1216.93 1572.75 1216.92C1572.57 1216.92 1572.49 1216.92 1572.49 1216.92L1572.38 1220.25Z"
        fill="#E28B6D" />
    <path d="M1008.17 1744C1014.23 1740.67 1110.07 1761.77 1216.36 1682.33L1079.22 1642.89L1008.17 1744Z"
        fill="#102048" />
    <path
        d="M1518.23 1373.63L1518.34 1373.47L1518.67 1373.33C1518.54 1373.44 1518.37 1373.53 1518.23 1373.63ZM1617.11 1285.17C1621.67 1278.6 1625.61 1268.93 1619.86 1263.4C1613.87 1257.6 1604.09 1262.71 1597.81 1268.17C1586.74 1277.77 1576.7 1288.29 1567.41 1299.51L1335.89 1342.89L1018.65 1420.67L1073.19 1490.89C1231.81 1502.56 1322.15 1505.56 1421.42 1487.89C1472.02 1478.88 1517.24 1469.6 1550.99 1441.87C1559.01 1435.23 1566.61 1424.11 1561.39 1415.07C1557.86 1408.96 1550.53 1407.37 1543.15 1407.44C1560.11 1403.4 1576.57 1397.51 1592.19 1389.8C1599.17 1386.4 1606.93 1381.07 1606.77 1373.27C1606.66 1367.67 1602.17 1362.93 1597.01 1360.93C1591.86 1358.93 1586.18 1359.11 1580.66 1359.51C1559.51 1361.11 1538.59 1365.77 1518.74 1373.29C1554.89 1347.84 1591.66 1321.47 1617.11 1285.17"
        fill="#B35341" />
    <path
        d="M1085.83 1315.67C1085.83 1315.67 1394.81 1167.33 1495.6 1174C1596.39 1180.67 1593.09 1307.33 1555.09 1362.33C1517.08 1417.33 1427.86 1490.67 1099.05 1469L1085.83 1315.67Z"
        fill="#121E40" />
    <path
        d="M1240.45 1927.73C1223.73 1932.51 1200.01 1933.67 1167.36 1928.44C1167.36 1928.44 1125.06 1939.51 1083.42 1948.2C1055.23 1954.09 1027.37 1958.89 1013.13 1958.44C1011.91 1958.4 1010.69 1958.33 1009.43 1958.23C982.101 1956.27 947.667 1941.89 929.394 1921.37L929.261 1921.2C924.238 1915.53 920.438 1909.37 918.389 1902.89C908.475 1871.77 929.426 1834 1042.87 1841.77C1042.87 1841.77 1080.31 1832.89 1089.14 1805.11C1097.96 1777.33 1032.96 1644 1032.96 1644L1125.49 1580.67L1216.36 1682.33C1216.36 1682.33 1230.14 1774 1230.14 1804C1230.14 1804 1268.68 1859.56 1274.19 1884C1277.73 1899.6 1270 1919.29 1240.45 1927.73Z"
        fill="#D3DFFF" />
    <path
        d="M720.209 1083.52C730.809 1079.4 741.606 1076.08 752.524 1073.01C757.988 1071.51 763.49 1070.11 769.09 1069C771.886 1068.43 774.714 1067.93 777.579 1067.55C779.02 1067.35 780.453 1067.2 781.951 1067.08C783.542 1067 785.101 1067.01 786.582 1067.16C798.452 1068.43 809.213 1072.19 819.904 1076.17C830.537 1080.25 840.947 1084.83 851.169 1089.79C861.421 1094.68 871.397 1100.12 881.211 1105.84C891.02 1111.56 900.673 1117.56 910.054 1123.97C928.693 1136.96 946.627 1151.21 962.065 1168.01L960.105 1169.99C951.797 1162.41 943.151 1155.24 934.157 1148.53C925.235 1141.73 915.999 1135.36 906.556 1129.31C887.823 1116.97 868.151 1106.12 848.13 1096.09C838.113 1091.09 827.912 1086.47 817.55 1082.33C807.196 1078.44 796.594 1074.25 786.044 1072.81C784.728 1072.63 783.473 1072.57 782.247 1072.59C780.939 1072.65 779.565 1072.76 778.214 1072.91C775.492 1073.2 772.755 1073.6 770.02 1074.08C764.549 1075.04 759.068 1076.16 753.609 1077.4C742.697 1079.89 731.819 1082.81 721.144 1086.15L720.209 1083.52Z"
        fill="#2B2E37" />
    <path
        d="M775.2 1519.84C812.377 1517.33 848.912 1520.01 875.44 1510.67C903.804 1500.67 977.882 1507.33 977.882 1507.33L937.125 1448.17L771.896 1489.84L775.2 1519.84Z"
        fill="#B35341" />
    <path
        d="M776.853 1410.67C738.85 1349 738.85 1227.33 786.767 1172.33C841.531 1109.48 958.605 1085.67 1019.74 1159C1080.87 1232.33 1193.23 1500.67 1216.36 1682.33C1216.36 1682.33 1092.44 1640.67 1008.17 1744C1008.17 1744 897.47 1489 874.338 1395.67L811.551 1445.67L776.853 1410.67Z"
        fill="#121E40" />
    <path
        d="M874.338 1395.67C874.338 1395.67 857.815 1389.56 834.683 1405.11C834.683 1405.11 654.033 1401.23 613.827 1442.33C573.62 1483.44 604.464 1538.44 663.396 1544.56C712.856 1549.68 808.872 1510.99 838.457 1498.41C844.465 1495.85 850.85 1494.32 857.356 1493.89L906.283 1490.67L874.338 1395.67Z"
        fill="#D3DFFF" />
    <path
        d="M946.481 550.734C946.481 550.734 934.365 510.227 907.71 520.347C881.054 530.48 895.247 583.2 947.865 597.867L946.481 550.734"
        fill="#F9B384" />
    <path
        d="M846.957 1289.25L861.275 1339.79C866.144 1356.6 870.698 1373.49 875.787 1390.23C880.768 1406.99 885.731 1423.75 890.956 1440.41C893.571 1448.75 896.151 1457.11 899.016 1465.35C900.414 1469.48 901.679 1473.68 903.158 1477.79C904.637 1481.89 906.077 1486.01 907.475 1490.16L905.091 1491.17C901.403 1483.2 897.944 1475.12 894.681 1466.96C891.435 1458.79 888.477 1450.52 885.483 1442.27C879.612 1425.71 874.423 1408.93 869.506 1392.09C864.738 1375.2 860.022 1358.29 855.883 1341.24C851.695 1324.2 847.742 1307.11 844.442 1289.85L846.957 1289.25"
        fill="#102048" />
    <path
        d="M1053.2 1953.59C1098.64 1944.41 1164.73 1887.75 1157.29 1851.92C1222.56 1873.59 1240.32 1906.51 1240.45 1927.73C1231.32 1930.33 1220.1 1931.87 1206.48 1931.87C1195.16 1931.87 1182.18 1930.81 1167.36 1928.44C1167.36 1928.44 1097.4 1946.49 1053.2 1953.59"
        fill="#C1CEF3" />
    <path
        d="M1009.43 1958.23C982.101 1956.27 947.667 1941.89 929.394 1921.37L929.261 1921.2C927.311 1918.53 925.493 1915.76 923.907 1912.89C933.623 1922.04 944.199 1929.49 955.598 1935.2C961.315 1937.93 967.098 1940.56 973.146 1942.4C976.087 1943.53 979.16 1944.2 982.202 1945.07C985.207 1946 988.348 1946.37 991.454 1946.93C998.35 1948.11 1005.36 1948.75 1012.38 1948.75C1030.48 1948.75 1048.6 1944.48 1064.75 1934C1056.32 1944.47 1043.76 1951.56 1030.58 1955.13C1023.67 1957 1016.57 1958 1009.43 1958.23"
        fill="#8B9ECF" />
    <path
        d="M934.504 556.48C933.891 552.84 932.195 549.44 930.199 546.347C928.158 543.28 925.725 540.413 922.915 538.413C920.099 536.427 917.045 535.44 914.467 536.84C911.763 538.2 909.619 541.52 907.748 544.88L905.919 544.24C906.707 540.28 908.155 535.933 912.258 533.067C914.282 531.64 917.053 531.133 919.458 531.573C921.878 532.013 923.993 533.053 925.78 534.36C929.348 537.013 931.963 540.453 933.863 544.213C935.707 547.96 937.033 552.187 936.441 556.52L934.504 556.48"
        fill="#E28B6D" />
    <path
        d="M1091.74 555.467C1090.57 561.213 1086.28 565.187 1082.15 564.347C1078.01 563.493 1075.6 558.147 1076.76 552.387C1077.92 546.64 1082.22 542.667 1086.35 543.52C1090.49 544.373 1092.9 549.72 1091.74 555.467Z"
        fill="#102048" />
    <path
        d="M1027.35 552.947C1026.42 558.747 1022.28 562.88 1018.11 562.2C1013.95 561.507 1011.33 556.253 1012.27 550.467C1013.2 544.68 1017.34 540.533 1021.51 541.227C1025.67 541.907 1028.29 547.16 1027.35 552.947Z"
        fill="#102048" />
    <path
        d="M1054.68 560.773C1055.07 565.507 1055.26 570.213 1055.32 574.813C1055.5 576.587 1056.31 578.093 1057.77 579.693C1059.18 581.293 1061 582.947 1062.57 585.267C1063.36 586.413 1063.98 587.867 1064.29 589.307C1064.62 590.733 1064.66 592.147 1064.56 593.547C1064.33 596.32 1063.36 599.054 1061.53 601.294C1060.63 602.427 1059.43 603.36 1058.13 604.04C1056.77 604.627 1055.32 605 1053.91 604.933C1051.09 604.813 1048.66 603.707 1046.64 602.28L1047.56 600.56C1049.69 601.254 1051.83 601.8 1053.72 601.44C1055.59 601.173 1057.08 600.173 1058.08 598.613C1060.1 595.573 1060.4 590.827 1058.44 587.987C1057.42 586.347 1055.74 584.8 1054.14 582.76C1052.52 580.84 1050.98 577.933 1051.09 574.907C1051.44 570.067 1052.02 565.32 1052.75 560.6L1054.68 560.773"
        fill="#E28B6D" />
    <path
        d="M1001.41 532.867C1004.04 530.213 1007.17 528.013 1010.69 526.427C1014.19 524.84 1018.16 523.973 1022.19 524.213C1026.22 524.453 1030.17 525.96 1033.32 528.333C1036.49 530.68 1038.94 533.72 1040.75 537.013L1039.22 538.213C1036.48 535.867 1033.85 533.653 1030.96 532.027C1028.09 530.4 1025.02 529.4 1021.84 529.187C1015.44 528.68 1008.92 531.253 1002.55 534.44L1001.41 532.867"
        fill="#102048" />
    <path
        d="M1068.65 538.573C1069.74 535.013 1072.66 532.227 1075.89 530.56C1079.14 528.84 1082.81 528.12 1086.43 528.173C1090.05 528.253 1093.7 529.2 1096.86 531.067C1100.01 532.907 1102.63 535.734 1103.99 539.027L1102.37 540.094C1097.88 535.534 1092.23 533.36 1086.3 533.147C1080.45 533.027 1074.26 534.654 1070.39 539.427L1068.65 538.573"
        fill="#102048" />
    <path d="M1023.53 616.84L1067.36 619.987C1067.36 619.987 1042.91 652.707 1023.53 616.84Z" fill="white" />
    <path
        d="M1093.96 619C1085.4 614.933 1079.49 606.133 1079.49 595.933C1079.49 581.827 1090.85 570.4 1104.83 570.4C1105.96 570.4 1107.08 570.467 1108.17 570.627C1105 587.16 1100.47 604.093 1093.96 619Z"
        fill="#F59872" />
    <path
        d="M996.609 615.667C982.616 615.667 971.273 604.227 971.273 590.107C971.273 576 982.616 564.56 996.609 564.56C1010.6 564.56 1021.94 576 1021.94 590.107C1021.94 604.227 1010.6 615.667 996.609 615.667Z"
        fill="#F59872" />
    <path
        d="M795.994 477.267C823.779 446.24 840.707 405.12 840.707 360.013C840.707 263.36 763.028 185 667.205 185C571.384 185 493.705 263.36 493.705 360.013C493.705 456.667 571.384 535.027 667.205 535.027C689.396 535.027 710.59 530.773 730.094 523.12L823.232 561.467L795.994 477.267"
        fill="white" />
    <path
        d="M796.325 481.6L798.042 483.16C826.194 451.72 843.352 410.053 843.35 364.347C843.349 266.4 764.636 187 667.536 187C570.437 187 491.724 266.4 491.723 364.347C491.724 462.293 570.437 541.693 667.536 541.693C690.019 541.693 711.501 537.387 731.264 529.627L730.425 527.453L729.551 529.613L827.31 569.853L798.524 480.88L796.325 481.6L798.042 483.16L796.325 481.6L794.125 482.32L819.815 561.733L730.445 524.933L729.585 525.28C710.339 532.827 689.433 537.027 667.536 537.027C620.258 537.027 577.475 517.693 546.489 486.44C515.506 455.187 496.35 412.04 496.349 364.347C496.35 316.653 515.506 273.507 546.489 242.24C577.475 210.987 620.256 191.667 667.536 191.667C714.817 191.667 757.598 210.987 788.584 242.24C819.567 273.507 838.723 316.653 838.724 364.347C838.723 408.867 822.025 449.413 794.608 480.04L793.71 481.04L794.125 482.32L796.325 481.6"
        fill="#8CBFBE" />
    <path
        d="M608.258 364.226C608.258 374.546 599.964 382.92 589.733 382.92C579.501 382.92 571.206 374.546 571.206 364.226C571.206 353.906 579.501 345.547 589.733 345.547C599.964 345.547 608.258 353.906 608.258 364.226Z"
        fill="#8CBFBE" />
    <path
        d="M685.733 364.226C685.733 374.546 677.438 382.92 667.206 382.92C656.975 382.92 648.681 374.546 648.681 364.226C648.681 353.906 656.975 345.547 667.206 345.547C677.438 345.547 685.733 353.906 685.733 364.226Z"
        fill="#8CBFBE" />
    <path
        d="M763.207 364.226C763.207 374.546 754.912 382.92 744.68 382.92C734.449 382.92 726.154 374.546 726.154 364.226C726.154 353.906 734.449 345.547 744.68 345.547C754.912 345.547 763.207 353.906 763.207 364.226Z"
        fill="#8CBFBE" />
    <path
        d="M1241.53 2.63982H900.282C880.929 2.63982 865.096 18.6131 865.096 38.1331V185.84C865.096 205.36 880.929 221.333 900.282 221.333H931.793L983.011 298.986L998.243 221.333H1241.53C1260.89 221.333 1276.72 205.36 1276.72 185.84V38.1331C1276.72 18.6131 1260.89 2.63982 1241.53 2.63982Z"
        fill="white" />
    <path
        d="M1241.53 2.63985V0.30652H900.282C879.642 0.30652 862.791 17.3064 862.783 38.1331V185.84C862.791 206.666 879.642 223.653 900.282 223.666H930.554L984.192 304.986L1000.14 223.666H1241.53C1262.17 223.653 1279.02 206.666 1279.03 185.84V38.1331C1279.02 17.3064 1262.17 0.30652 1241.53 0.30652V2.63985V4.97319C1250.57 4.97319 1258.78 8.69319 1264.75 14.7065C1270.71 20.7332 1274.41 29.0131 1274.41 38.1331V185.84C1274.41 194.96 1270.71 203.24 1264.75 209.253C1258.78 215.28 1250.57 219 1241.53 219H996.343L981.831 292.986L933.032 219H900.282C891.244 219 883.036 215.28 877.068 209.253C871.103 203.24 867.41 194.96 867.41 185.84V38.1331C867.41 29.0131 871.103 20.7332 877.068 14.7065C883.036 8.69319 891.244 4.97319 900.282 4.97319H1241.53V2.63985Z"
        fill="#8CBFBE" />
    <path d="M1217.06 73.3464H924.749V56.4131H1217.06V73.3464" fill="#8CBFBE" />
    <path d="M1217.06 118H924.749V101.066H1217.06V118" fill="#C6EAE9" />
    <path d="M1217.06 162.667H924.749V145.72H1217.06V162.667Z" fill="#C6EAE9" />
    <path d="M1994.56 1591.35H2029.8V1243.57H1994.56V1591.35Z" fill="#27481F" />
    <path
        d="M2020.98 1220.2C2020.52 1245.37 2018.2 1266.57 2016.26 1280.28C2014.77 1290.8 2013.51 1296.87 2013.51 1296.87C1917.28 1265.37 1873.13 1205.2 1854.76 1144.51C1853.04 1138.97 1851.59 1133.41 1850.33 1127.87C1830.9 1043.41 1856.94 962.933 1856.94 962.933C1901.06 972.24 1933.67 991.64 1957.64 1016.61C1961.76 1020.87 1965.59 1025.28 1969.2 1029.84C2013.55 1085.91 2022.04 1163.2 2020.98 1220.2"
        fill="#49883A" />
    <path
        d="M2145.73 1052.07C2143.82 1119.61 2117.78 1198.28 2037.01 1273.8C2030.83 1279.61 2024.28 1285.41 2017.41 1291.17C2016.68 1291.8 2015.96 1292.4 2015.23 1293.01C2015.23 1293.01 2001.85 1273.2 1988.06 1241C1987.87 1240.53 1987.67 1240.11 1987.51 1239.64C1982.68 1228.28 1977.82 1215.37 1973.52 1201.28C1970 1189.77 1966.82 1177.51 1964.27 1164.57C1954.56 1114.87 1954.53 1055.95 1981.39 997.613C2001.55 953.667 2036.97 910.107 2094.94 871C2094.94 871 2148.71 948.467 2145.73 1052.07Z"
        fill="#49883A" />
    <path
        d="M1973.52 1201.28C1948.94 1178.61 1911.44 1158.11 1854.76 1144.51C1853.04 1138.97 1851.59 1133.41 1850.33 1127.87C1882.54 1132.76 1909.28 1139.97 1931.53 1148.76C1933.33 1097.79 1948.37 1041.27 1957.64 1016.61C1961.76 1020.87 1965.59 1025.27 1969.19 1029.83C1964.07 1046.79 1960.97 1063.65 1959.46 1080.17C1959.46 1080.21 1959.46 1080.24 1959.45 1080.28C1959.45 1080.32 1959.45 1080.35 1959.45 1080.39C1956.75 1110.04 1959.18 1138.57 1964.27 1164.57C1966.82 1177.51 1970 1189.77 1973.52 1201.28"
        fill="#38682C" />
    <path
        d="M2017.12 1312.8L2017.08 1313.13C2017.01 1313.97 2016.95 1314.77 2016.86 1315.53C2016.79 1315.91 2016.75 1316.28 2016.72 1316.64C2016.66 1317.28 2016.59 1317.87 2016.49 1318.47C2016.26 1320.31 2016 1322.01 2015.73 1323.64C2015.56 1324.71 2015.36 1325.75 2015.16 1326.73C2013.42 1335.71 2011.44 1341.04 2011.44 1341.04C2002.01 1341.64 1993.02 1341.61 1984.36 1341.01C1827.57 1330.4 1795.38 1133.8 1795.38 1133.8C1800.43 1134.44 1805.36 1135.13 1810.19 1135.91C1826.21 1138.31 1841.05 1141.2 1854.76 1144.51C1911.44 1158.11 1948.94 1178.61 1973.53 1201.28C1980.93 1208.08 1987.14 1215.11 1992.34 1222.17C2006.88 1241.91 2013.64 1262.17 2016.26 1280.28C2016.82 1284.01 2017.19 1287.64 2017.41 1291.17C2017.91 1299.04 2017.71 1306.33 2017.12 1312.8"
        fill="#49883A" />
    <path
        d="M2017.41 1291.17C2017.19 1287.64 2016.82 1284.01 2016.26 1280.28C2013.64 1262.17 2006.88 1241.91 1992.34 1222.17C1987.14 1215.11 1980.93 1208.08 1973.53 1201.28C1970 1189.77 1966.82 1177.51 1964.27 1164.57C1973.24 1169.84 1981.17 1175.4 1988.11 1181.2C1993.02 1185.28 1997.39 1189.44 2001.39 1193.68C2022.04 1139.17 2063.65 1083.37 2145.73 1052.07C2144.77 1085.84 2137.76 1122.37 2120.91 1159.95C2113.73 1175.97 2104.76 1192.19 2093.68 1208.44C2080.24 1228.15 2063.71 1247.93 2043.6 1267.53C2041.44 1269.63 2039.25 1271.72 2037.01 1273.8C2036.84 1273.95 2036.68 1274.11 2036.51 1274.24C2034.13 1276.47 2031.69 1278.71 2029.18 1280.95C2028.45 1281.61 2027.72 1282.28 2026.97 1282.95C2024.83 1284.81 2022.66 1286.72 2020.45 1288.6C2019.45 1289.47 2018.44 1290.32 2017.41 1291.17"
        fill="#3C7030" />
    <path
        d="M1997.98 1341.48C1993.35 1341.48 1988.82 1341.32 1984.36 1341.01C1982.91 1330.11 1978.72 1289.53 1988.07 1241C1989.26 1234.84 1990.68 1228.53 1992.33 1222.17C2006.88 1241.91 2013.64 1262.17 2016.26 1280.28C2016.82 1284.01 2017.19 1287.64 2017.41 1291.17C2017.61 1294.24 2017.7 1297.23 2017.7 1300.12C2017.7 1304.61 2017.48 1308.87 2017.12 1312.8L2017.08 1313.13C2017.01 1313.97 2016.95 1314.77 2016.86 1315.53C2016.79 1315.91 2016.75 1316.28 2016.72 1316.64C2016.66 1317.28 2016.59 1317.87 2016.49 1318.47C2016.26 1320.31 2016 1322.01 2015.73 1323.64C2015.53 1324.71 2015.36 1325.75 2015.16 1326.73C2013.42 1335.71 2011.44 1341.04 2011.44 1341.04C2006.85 1341.33 2002.37 1341.48 1997.98 1341.48"
        fill="#427B35" />
    <path
        d="M2168.03 1546.91L2129.28 1802.84C2124.94 1831.37 2100.62 1852.44 2072 1852.44H1955.61C1930.27 1852.44 1908.27 1835.91 1900.6 1812.28C1899.61 1809.24 1898.84 1806.07 1898.35 1802.84L1859.58 1546.91H2168.03Z"
        fill="#FBC343" />
    <path
        d="M2007.36 1341.35C2007.36 1341.35 1964.89 1087.28 2235.01 1050.64C2235.01 1050.64 2251.96 1329.07 2007.36 1341.35Z"
        fill="#49883A" />
    <path
        d="M2072 1852.44H1955.61C1930.27 1852.44 1908.27 1835.91 1900.6 1812.28C2051.71 1787.84 2092.23 1630.91 2100.42 1546.91H2168.03L2140.45 1729.11L2139.43 1735.77L2129.28 1802.84C2124.94 1831.37 2100.62 1852.44 2072 1852.44Z"
        fill="#E7B33D" />
</svg>